<svg xmlns="http://www.w3.org/2000/svg" viewBox="0 0 256 256" width="256" height="256">
  <rect width="256" height="256" fill="#0A0A0B"/>
  <rect x="20" y="20" width="216" height="216" fill="none" stroke="#2A2A2E" stroke-width="1.5"/>
  <g stroke="#2A2A2E" stroke-width="1.5">
    <line x1="20" y1="60" x2="40" y2="60"/><line x1="60" y1="20" x2="60" y2="40"/>
    <line x1="216" y1="60" x2="236" y2="60"/><line x1="196" y1="20" x2="196" y2="40"/>
    <line x1="20" y1="196" x2="40" y2="196"/><line x1="60" y1="216" x2="60" y2="236"/>
    <line x1="216" y1="196" x2="236" y2="196"/><line x1="196" y1="216" x2="196" y2="236"/>
  </g>
  <rect x="180" y="44" width="32" height="32" fill="#2D7FF9"/>
  <rect x="44" y="120" width="120" height="14" fill="#2D7FF9"/>
  <rect x="44" y="146" width="168" height="14" fill="#F4F2EE" opacity="0.85"/>
  <rect x="44" y="172" width="84"  height="14" fill="#F4F2EE" opacity="0.55"/>
  <line x1="44" y1="208" x2="212" y2="208" stroke="#2A2A2E" stroke-width="1.5"/>
</svg>